<svg width="1239" height="913" viewBox="0 0 1239 913" fill="none" xmlns="http://www.w3.org/2000/svg">
<path d="M195.747 416.362C192.091 420.126 194.621 426.449 199.868 426.449H265.613C271.767 426.449 277.829 424.701 282.635 420.857C286.93 417.661 291.024 414.265 295.119 410.57C297.389 408.679 299.658 406.698 301.843 404.542C302.087 404.302 302.339 404.14 302.601 403.919C302.81 403.742 303.013 403.487 303.218 403.304C305.696 401.083 307.998 398.686 310.299 396.288C313.895 392.693 317.39 388.998 320.786 385.203C323.083 382.706 325.28 380.209 327.377 377.612C329.774 374.816 332.071 372.02 334.268 369.123C336.366 366.626 338.363 364.03 340.361 361.433C342.757 358.237 345.154 355.042 347.451 351.746C349.349 349.149 351.246 346.453 353.044 343.756C356.04 339.462 358.937 335.167 361.733 330.673C363.73 327.677 365.628 324.681 367.525 321.684C372.519 313.595 377.413 305.306 382.206 297.016C384.204 293.421 386.201 289.926 388.199 286.33C388.898 285.132 389.497 284.033 390.196 282.835C391.494 280.438 392.793 278.141 394.091 275.744C395.489 273.147 396.987 270.551 398.286 267.854C401.082 262.861 403.679 257.867 406.375 252.874C408.073 249.678 409.871 246.382 411.569 243.186C440.331 189.256 470.093 133.428 513.038 86.3883C516.134 83.0926 519.23 79.8967 522.425 76.7008C525.621 73.6048 528.817 70.509 532.213 67.5128C535.009 64.9162 537.905 62.4194 540.902 60.0225C564.658 40.4586 591.307 25.2842 619.454 15.1972C619.481 15.1872 619.5 15.1607 619.5 15.1311C619.5 15.1009 619.519 15.0741 619.548 15.0645C621.328 14.4689 623.011 13.7778 624.793 13.2829C627.49 12.2842 630.186 11.4852 632.883 10.6862C634.081 10.2867 635.38 9.88705 636.678 9.58746C640.173 8.58875 643.769 7.59006 647.364 6.79108C652.058 5.59262 656.752 4.69391 661.446 3.79507C665.141 3.19583 668.836 2.59647 672.532 2.09714C673.131 1.99725 673.73 1.89749 674.329 1.89749C677.525 1.49802 680.721 1.09845 683.917 0.898712C685.015 0.698975 686.214 0.699188 687.412 0.499451C691.307 0.299713 695.302 0.0997925 699.297 -9.15527e-05H700.595C704.091 0.0997925 707.686 0.199829 711.182 0.499451C713.379 0.699188 715.576 0.898804 717.673 0.998688C721.169 1.29831 724.564 1.69772 728.06 2.19708C730.261 2.48416 732.553 2.77139 734.762 3.23419C734.954 3.27444 735.138 3.28912 735.334 3.30206C735.755 3.32993 736.167 3.52304 736.585 3.58093C738.631 3.8642 740.669 4.22672 742.629 4.66849C742.703 4.6853 742.807 4.6922 742.883 4.69586C743.085 4.70557 743.246 4.81503 743.445 4.85461C746.346 5.43369 749.334 6.01596 752.229 6.69141C755.624 7.49039 759.02 8.3891 762.416 9.38782C768.907 11.0856 775.199 13.1831 781.391 15.4801C782.589 15.8796 783.688 16.2788 784.886 16.7782C793.775 20.1738 802.564 24.0689 811.053 28.4632C813.549 29.7616 816.046 31.0598 818.543 32.458C823.137 34.9548 827.631 37.6513 832.026 40.5475C834.522 42.0456 837.119 43.7434 839.616 45.5411C841.513 46.7395 843.411 48.038 845.209 49.4362C846.507 50.3351 847.705 51.2339 849.004 52.2326C854.097 55.9278 859.091 59.9225 863.984 64.2169C865.283 65.3155 866.481 66.4143 867.68 67.5128C871.075 70.509 874.271 73.6048 877.467 76.7008C880.763 79.8967 883.859 83.0926 886.855 86.3883C918.514 121.044 940.386 161.491 961.558 200.641C964.754 206.533 967.95 212.426 971.046 218.118C971.346 218.618 971.645 219.117 971.845 219.616C974.042 223.611 976.239 227.506 978.536 231.401C980.933 235.796 983.43 240.19 986.027 244.484C990.821 252.574 995.714 260.564 1001.01 268.254C1002.01 269.852 1003.1 271.449 1004.2 273.047C1053.54 344.255 1106.77 400.383 1154.31 431.343C1179.3 447.578 1167.8 486.372 1138 486.372L954.826 486.372C948.988 486.372 943.276 484.672 938.388 481.478C929.999 475.985 922.009 470.093 914.219 463.901C906.43 457.709 899.039 451.118 892.048 444.226C849.503 402.98 818.144 351.746 792.377 304.507C786.385 293.521 780.492 282.535 774.5 271.449C746.236 218.418 719.571 168.283 681.62 126.836C674.329 118.946 666.639 111.556 658.35 104.964C655.23 102.364 656.02 97.4478 659.918 96.3062C672.965 92.4852 686.414 90.2905 699.996 89.8839C707.057 90.073 714.078 90.7794 721.034 91.953C728.978 93.2932 736.022 97.7197 741.106 103.969C776.16 147.065 802.142 195.861 827.432 243.186C833.224 254.072 839.017 264.958 844.909 275.744C846.806 279.24 848.804 282.835 850.801 286.33C852.799 289.926 854.796 293.421 856.794 297.016C861.587 305.306 866.481 313.595 871.575 321.684C873.372 324.781 875.37 327.777 877.267 330.673C885.856 344.056 894.944 356.939 904.732 369.123C906.929 372.02 909.226 374.816 911.623 377.612C913.72 380.209 915.917 382.706 918.214 385.203C921.61 388.998 925.005 392.693 928.701 396.288C931.098 398.885 933.694 401.382 936.291 403.779C939.187 406.575 942.183 409.272 945.179 411.768C948.039 414.43 950.995 416.8 954.049 419.07C954.128 419.129 954.241 419.233 954.312 419.302C954.648 419.631 955.065 419.824 955.429 420.123C956.848 421.288 958.269 422.389 959.702 423.447C962.432 425.462 965.769 426.449 969.162 426.449L1052.49 426.449C1053.06 426.449 1053.35 425.756 1052.94 425.351C1048.35 420.856 1043.75 416.163 1039.36 411.568C1035.06 407.174 1030.87 402.68 1026.67 398.086C1026.17 397.487 1025.68 396.987 1025.18 396.388C1020.58 391.295 1016.09 386.201 1011.69 381.008C1008.7 377.512 1005.8 374.017 1002.9 370.522C1000.01 367.026 997.212 363.63 994.416 360.135C991.62 356.739 988.923 353.244 986.326 349.848C983.63 346.453 981.033 343.057 978.536 339.761C972.844 332.171 967.451 324.781 962.357 317.69C959.761 314.094 957.364 310.599 954.967 307.203C949.474 299.214 944.181 291.124 939.187 282.835C936.091 277.841 933.195 272.848 930.299 267.854C927.402 262.861 924.606 257.867 921.81 252.874C917.415 244.884 913.121 236.994 908.826 229.104C905.031 222.013 901.236 215.122 897.441 208.231C893.646 201.34 889.851 194.649 885.956 187.957C881.661 180.467 877.167 173.176 872.473 166.086C870.875 163.589 869.178 161.092 867.58 158.695C866.881 157.696 866.182 156.698 865.482 155.699C863.585 152.902 861.687 150.206 859.69 147.609C856.594 143.515 853.498 139.42 850.102 135.525C847.705 132.529 845.209 129.633 842.612 126.836C835.521 119.046 827.931 111.955 819.941 105.464C814.648 101.169 809.255 97.0746 803.562 93.3794C798.469 89.9838 793.276 86.8878 787.982 83.9915C786.684 83.1925 785.386 82.5934 783.988 81.8943C783.368 81.4811 782.662 81.2122 782.004 80.8619C781.446 80.5644 780.881 80.2745 780.295 80.0049C779.833 79.7923 779.368 79.5045 778.9 79.3035C778.49 79.1268 778.094 78.9964 777.693 78.7977C776.895 78.4019 776.097 78.0188 775.299 77.6996C773.601 76.9006 771.903 76.1018 770.205 75.4027C769.547 75.0268 768.801 74.7392 768.133 74.4568C768.05 74.4218 768.025 74.4076 767.937 74.3866C767.697 74.3292 767.393 74.2495 767.169 74.1469C765.784 73.5148 764.399 72.968 763.015 72.5064C761.617 71.9072 760.118 71.4077 758.62 70.8085C746.736 66.7137 734.651 63.7178 722.267 61.9201C720.17 61.5206 718.073 61.3207 715.876 61.1209C713.279 60.7215 710.582 60.5219 707.886 60.3221C704.99 60.1224 702.193 60.0224 699.297 59.9225C698.495 59.9225 697.695 60.0361 696.894 60.0709C670.253 61.2264 643.928 68.0865 619.636 80.079C619.619 80.0871 619.6 80.0751 619.6 80.0567C619.6 80.0346 619.573 80.0235 619.557 80.0392L619.507 80.0894C619.503 80.0942 619.497 80.0981 619.491 80.1008C617.896 80.7989 616.401 81.5961 614.906 82.3935C614.307 82.6931 613.608 83.0927 612.909 83.3923C610.911 84.4909 608.814 85.6894 606.816 86.8878C588.64 97.3743 571.862 110.857 557.28 126.836C554.584 129.832 551.987 132.729 549.391 135.825C545.895 139.819 542.599 143.914 539.404 148.109C537.306 150.606 535.409 153.202 533.511 155.799C529.816 160.593 526.32 165.586 522.925 170.68C519.329 175.773 515.934 181.066 512.638 186.359C509.143 191.652 505.847 197.046 502.751 202.439C499.355 207.832 496.159 213.325 493.163 218.917C489.867 224.41 486.771 230.003 483.775 235.696C480.48 241.388 477.384 247.081 474.387 252.874C471.691 257.767 468.994 262.761 466.298 267.854C465.699 268.953 465 270.151 464.4 271.35C462.403 275.145 460.306 279.04 458.208 282.835C454.413 290.125 450.518 297.316 446.623 304.507C412.168 367.425 367.925 437.735 300.612 481.478C295.724 484.672 290.012 486.372 284.174 486.372L100.999 486.372C71.2018 486.372 59.7051 447.578 84.6906 431.343C135.625 398.186 191.553 339.262 234.297 273.747C238.492 267.355 242.687 260.464 246.881 253.273C251.076 245.982 255.37 238.292 259.765 230.403C262.661 225.109 265.557 219.816 268.553 214.323C291.623 171.978 317.79 123.94 352.145 86.3883C400.782 33.0572 468.695 1.59784 538.305 -9.15527e-05H539.703C543.598 0.0997925 547.593 0.299713 551.488 0.499451C552.786 0.699188 554.085 0.798859 555.383 0.898712C558.379 1.09845 561.375 1.49802 564.371 1.89749C565.17 1.89749 565.969 1.99725 566.668 2.09714C568.673 2.39786 569.086 4.99551 567.31 5.97446C539.114 21.5227 513.134 41.8856 490.866 66.3145C489.888 67.2926 488.757 68.122 487.437 68.5337C453.257 79.1883 421.557 99.2189 396.388 126.836C385.402 138.921 375.215 152.503 365.628 166.884C363.231 170.48 360.834 174.075 358.537 177.771C353.843 185.161 349.249 192.751 344.855 200.341C342.658 204.236 340.46 208.031 338.263 211.926C332.471 222.313 326.778 232.7 321.185 242.986C308.701 265.857 296.917 287.529 284.533 306.504C280.937 311.997 277.242 317.49 273.447 322.883C269.452 328.776 265.257 334.568 260.963 340.261C257.967 344.355 254.971 348.35 251.875 352.345C240.19 367.326 228.006 381.807 215.522 395.489C212.326 399.085 209.03 402.58 205.834 405.976C205.235 406.575 204.636 407.174 204.037 407.774C201.24 410.67 198.444 413.566 195.747 416.362Z" fill="black"/>
<path d="M1043.25 496.551C1046.91 492.787 1044.38 486.464 1039.13 486.464H973.387C967.233 486.464 961.171 488.212 956.365 492.057C952.07 495.253 947.976 498.648 943.881 502.343C941.611 504.235 939.342 506.216 937.157 508.371C936.913 508.611 936.661 508.773 936.399 508.994C936.19 509.171 935.987 509.426 935.782 509.61C933.304 511.83 931.002 514.228 928.701 516.625C925.105 520.22 921.61 523.916 918.214 527.711C915.917 530.207 913.72 532.704 911.623 535.301C909.226 538.097 906.929 540.894 904.732 543.79C902.634 546.287 900.637 548.883 898.639 551.48C896.243 554.676 893.846 557.872 891.549 561.168C889.651 563.764 887.754 566.461 885.956 569.157C882.96 573.452 880.064 577.746 877.267 582.24C875.27 585.236 873.372 588.233 871.475 591.229C866.481 599.318 861.587 607.608 856.794 615.897C854.796 619.492 852.799 622.988 850.801 626.583C850.102 627.781 849.503 628.88 848.804 630.079C847.506 632.475 846.207 634.772 844.909 637.169C843.511 639.766 842.013 642.363 840.714 645.059C837.918 650.053 835.321 655.046 832.625 660.04C830.927 663.236 829.129 666.531 827.431 669.727C798.669 723.658 768.907 779.486 725.962 826.525C722.866 829.821 719.77 833.017 716.575 836.212C713.379 839.309 710.183 842.404 706.787 845.4C703.991 847.997 701.095 850.494 698.098 852.891C674.342 872.455 647.693 887.629 619.546 897.716C619.519 897.726 619.5 897.753 619.5 897.782C619.5 897.812 619.481 897.839 619.452 897.849C617.672 898.444 615.989 899.135 614.207 899.63C611.51 900.629 608.814 901.428 606.117 902.227C604.919 902.627 603.62 903.026 602.322 903.326C598.827 904.325 595.231 905.323 591.636 906.122C586.942 907.321 582.248 908.219 577.554 909.118C573.859 909.717 570.164 910.317 566.468 910.816C565.869 910.916 565.27 911.016 564.671 911.016C561.475 911.415 558.279 911.815 555.083 912.015C553.985 912.214 552.786 912.214 551.588 912.414C547.693 912.614 543.698 912.814 539.703 912.913H538.405C534.909 912.814 531.314 912.713 527.818 912.414C525.621 912.214 523.424 912.014 521.327 911.915C517.831 911.615 514.436 911.216 510.94 910.716C508.739 910.429 506.447 910.142 504.238 909.679C504.046 909.639 503.862 909.624 503.666 909.611C503.245 909.583 502.833 909.39 502.415 909.332C500.369 909.049 498.331 908.687 496.371 908.245C496.297 908.228 496.193 908.221 496.117 908.217C495.915 908.208 495.754 908.098 495.555 908.059C492.654 907.48 489.666 906.897 486.771 906.222C483.376 905.423 479.98 904.524 476.585 903.525C470.093 901.828 463.801 899.73 457.609 897.433C456.411 897.034 455.312 896.634 454.114 896.135C445.225 892.74 436.436 888.844 427.947 884.45C425.451 883.152 422.954 881.853 420.457 880.455C415.863 877.959 411.369 875.262 406.974 872.366C404.478 870.868 401.881 869.17 399.384 867.372C397.487 866.174 395.589 864.875 393.791 863.477C392.493 862.578 391.295 861.679 389.996 860.681C384.903 856.986 379.909 852.991 375.016 848.696C373.717 847.598 372.519 846.499 371.32 845.4C367.925 842.404 364.729 839.309 361.533 836.212C358.237 833.017 355.141 829.821 352.145 826.525C320.486 791.87 298.614 751.422 277.442 712.272C274.246 706.38 271.05 700.488 267.954 694.795C267.654 694.296 267.355 693.796 267.155 693.297C264.958 689.302 262.761 685.407 260.464 681.512C258.067 677.118 255.57 672.723 252.973 668.429C248.179 660.339 243.286 652.35 237.993 644.66C236.994 643.062 235.895 641.464 234.797 639.866C185.46 568.658 132.229 512.53 84.6906 481.57C59.705 465.336 71.2018 426.541 100.999 426.541L284.174 426.541C290.012 426.541 295.724 428.242 300.612 431.435C309.001 436.928 316.991 442.82 324.781 449.012C332.57 455.204 339.961 461.796 346.952 468.687C389.497 509.934 420.856 561.168 446.623 608.407C452.615 619.392 458.508 630.378 464.5 641.464C492.764 694.495 519.429 744.631 557.38 786.077C564.671 793.967 572.361 801.357 580.65 807.949C583.77 810.549 582.98 815.466 579.082 816.607C566.035 820.428 552.586 822.623 539.004 823.029C531.943 822.84 524.922 822.134 517.966 820.96C510.022 819.62 502.978 815.194 497.894 808.944C462.84 765.848 436.858 717.052 411.568 669.727C405.776 658.841 399.983 647.955 394.091 637.169C392.194 633.674 390.196 630.078 388.199 626.583C386.201 622.988 384.204 619.492 382.206 615.897C377.413 607.608 372.519 599.318 367.425 591.229C365.628 588.133 363.63 585.136 361.733 582.24C353.144 568.857 344.056 555.974 334.268 543.79C332.071 540.894 329.774 538.097 327.377 535.301C325.28 532.704 323.083 530.207 320.786 527.711C317.39 523.916 313.995 520.22 310.299 516.625C307.902 514.028 305.306 511.532 302.709 509.135C299.813 506.338 296.817 503.642 293.82 501.145C290.961 498.483 288.005 496.113 284.951 493.843C284.872 493.784 284.759 493.681 284.688 493.612C284.352 493.282 283.935 493.089 283.571 492.79C282.152 491.625 280.731 490.524 279.298 489.466C276.568 487.451 273.231 486.464 269.838 486.464L186.515 486.464C185.941 486.464 185.654 487.157 186.06 487.563C190.654 492.057 195.248 496.751 199.642 501.345C203.937 505.739 208.131 510.233 212.326 514.827C212.825 515.426 213.324 515.926 213.824 516.525C218.418 521.619 222.912 526.712 227.306 531.905C230.302 535.401 233.199 538.896 236.095 542.392C238.991 545.887 241.788 549.283 244.584 552.778C247.38 556.174 250.077 559.669 252.674 563.065C255.37 566.461 257.967 569.856 260.464 573.152C266.156 580.742 271.549 588.133 276.643 595.224C279.239 598.819 281.636 602.314 284.033 605.71C289.526 613.7 294.819 621.789 299.813 630.079C302.909 635.072 305.805 640.066 308.701 645.059C311.598 650.053 314.394 655.046 317.19 660.04C321.585 668.03 325.879 675.919 330.174 683.809C333.969 690.9 337.764 697.791 341.559 704.682C345.354 711.573 349.149 718.265 353.044 724.956C357.339 732.446 361.833 739.737 366.527 746.828C368.125 749.325 369.822 751.821 371.42 754.218C372.119 755.217 372.818 756.216 373.518 757.214C375.415 760.011 377.313 762.707 379.31 765.304C382.406 769.399 385.502 773.493 388.898 777.388C391.295 780.384 393.791 783.281 396.388 786.077C403.479 793.867 411.069 800.958 419.059 807.45C424.352 811.744 429.745 815.839 435.438 819.534C440.531 822.93 445.724 826.026 451.018 828.922C452.316 829.721 453.614 830.32 455.012 831.019C455.632 831.432 456.338 831.701 456.996 832.051C457.554 832.349 458.119 832.639 458.705 832.908C459.167 833.121 459.632 833.409 460.1 833.61C460.51 833.787 460.906 833.917 461.307 834.116C462.105 834.511 462.903 834.895 463.701 835.214C465.399 836.013 467.097 836.811 468.795 837.511C469.453 837.887 470.199 838.174 470.867 838.456C470.95 838.491 470.975 838.506 471.063 838.527C471.303 838.584 471.607 838.664 471.831 838.766C473.216 839.399 474.601 839.945 475.985 840.407C477.383 841.006 478.882 841.506 480.38 842.105C492.264 846.2 504.349 849.196 516.733 850.993C518.83 851.393 520.927 851.593 523.124 851.792C525.721 852.192 528.418 852.391 531.114 852.591C534.01 852.791 536.807 852.891 539.703 852.991C540.505 852.991 541.305 852.877 542.106 852.842C568.747 851.687 595.072 844.827 619.364 832.834C619.381 832.826 619.4 832.838 619.4 832.857C619.4 832.879 619.427 832.89 619.443 832.874L619.493 832.824C619.498 832.819 619.503 832.815 619.509 832.812C621.104 832.114 622.599 831.317 624.094 830.52C624.693 830.22 625.392 829.821 626.091 829.521C628.089 828.422 630.186 827.224 632.184 826.025C650.36 815.539 667.138 802.056 681.72 786.077C684.416 783.081 687.013 780.185 689.609 777.089C693.105 773.094 696.401 768.999 699.596 764.804C701.694 762.308 703.591 759.711 705.489 757.114C709.184 752.321 712.68 747.327 716.075 742.234C719.671 737.14 723.066 731.847 726.362 726.554C729.857 721.261 733.153 715.868 736.249 710.475C739.645 705.082 742.841 699.589 745.837 693.996C749.133 688.503 752.229 682.91 755.225 677.218C758.52 671.525 761.616 665.832 764.613 660.04C767.309 655.146 770.006 650.153 772.702 645.059C773.301 643.961 774 642.762 774.6 641.564C776.597 637.769 778.694 633.874 780.792 630.079C784.587 622.788 788.482 615.597 792.377 608.407C826.832 545.488 871.075 475.179 938.388 431.435C943.276 428.242 948.988 426.541 954.826 426.541L1138 426.541C1167.8 426.541 1179.29 465.336 1154.31 481.57C1103.38 514.727 1047.45 573.651 1004.7 639.167C1000.51 645.559 996.313 652.45 992.119 659.64C987.924 666.931 983.63 674.621 979.235 682.511C976.339 687.804 973.443 693.097 970.447 698.59C947.377 740.936 921.21 788.973 886.855 826.525C838.218 879.856 770.305 911.315 700.695 912.913H699.297C695.402 912.814 691.407 912.614 687.512 912.414C686.214 912.214 684.916 912.114 683.617 912.015C680.621 911.815 677.625 911.415 674.629 911.016C673.83 911.016 673.031 910.916 672.332 910.816C670.327 910.515 669.914 907.918 671.69 906.939C699.886 891.391 725.866 871.028 748.134 846.599C749.112 845.621 750.243 844.791 751.563 844.38C785.744 833.725 817.443 813.694 842.612 786.077C853.598 773.993 863.785 760.41 873.372 746.029C875.769 742.434 878.166 738.838 880.463 735.143C885.157 727.752 889.751 720.162 894.145 712.572C896.342 708.677 898.54 704.882 900.737 700.987C906.529 690.6 912.222 680.214 917.815 669.927C930.299 647.056 942.083 625.385 954.467 606.409C958.063 600.916 961.758 595.423 965.553 590.03C969.548 584.138 973.743 578.345 978.037 572.653C981.033 568.558 984.029 564.563 987.125 560.568C998.81 545.588 1010.99 531.106 1023.48 517.424C1026.67 513.829 1029.97 510.333 1033.17 506.938C1033.77 506.338 1034.36 505.739 1034.96 505.14C1037.76 502.243 1040.56 499.347 1043.25 496.551Z" fill="black"/>
</svg>
